<?xml version="1.0" encoding="UTF-8" standalone="no"?> <svg width="64" height="64" viewBox="0 0 64 64" fill="none" xmlns="http://www.w3.org/2000/svg">
<path d="M32 40.8899C41.2508 40.8899 48.75 33.3907 48.75 24.1399C48.75 14.8891 41.2508 7.38989 32 7.38989C22.7492 7.38989 15.25 14.8891 15.25 24.1399C15.25 33.3907 22.7492 40.8899 32 40.8899Z" fill="#78B9EB"/>
<path d="M32.0001 2.75C26.3288 2.7553 20.8912 5.01058 16.8809 9.02083C12.8707 13.0311 10.6154 18.4686 10.6101 24.14C10.6101 35.58 30.2001 59.77 31.0001 60.79C31.1173 60.9342 31.2652 61.0505 31.433 61.1303C31.6008 61.2102 31.7843 61.2516 31.9701 61.2516C32.1559 61.2516 32.3394 61.2102 32.5072 61.1303C32.675 61.0505 32.8229 60.9342 32.9401 60.79C33.7701 59.79 53.3601 35.58 53.3601 24.14C53.3548 18.4738 51.1037 13.0408 47.0999 9.03141C43.0961 5.02202 37.6663 2.76323 32.0001 2.75V2.75ZM32.0001 58C28.0001 52.93 13.1101 33.34 13.1101 24.15C13.1101 19.1401 15.1003 14.3353 18.6429 10.7928C22.1854 7.25019 26.9902 5.26 32.0001 5.26C37.01 5.26 41.8148 7.25019 45.3574 10.7928C48.8999 14.3353 50.8901 19.1401 50.8901 24.15C50.8901 33.33 36.0001 52.92 32.0001 58Z" fill="#006DF0"/>
<path d="M32 7.38989C28.6872 7.38989 25.4487 8.37226 22.6942 10.2128C19.9397 12.0533 17.7928 14.6693 16.525 17.7299C15.2573 20.7906 14.9256 24.1585 15.5719 27.4077C16.2182 30.6568 17.8134 33.6414 20.156 35.9839C22.4985 38.3265 25.4831 39.9217 28.7322 40.568C31.9814 41.2143 35.3493 40.8826 38.41 39.6149C41.4706 38.3471 44.0866 36.2002 45.9271 33.4457C47.7676 30.6912 48.75 27.4527 48.75 24.1399C48.7447 19.6991 46.9783 15.4418 43.8382 12.3017C40.6981 9.16161 36.4408 7.39519 32 7.38989ZM32 38.3899C29.1816 38.3899 26.4265 37.5541 24.0831 35.9883C21.7397 34.4225 19.9133 32.197 18.8347 29.5931C17.7562 26.9893 17.474 24.1241 18.0238 21.3599C18.5737 18.5956 19.9308 16.0565 21.9237 14.0636C23.9166 12.0707 26.4557 10.7135 29.22 10.1637C31.9842 9.61386 34.8494 9.89606 37.4532 10.9746C40.0571 12.0532 42.2826 13.8796 43.8484 16.223C45.4143 18.5664 46.25 21.3215 46.25 24.1399C46.2474 27.9184 44.7452 31.5414 42.0734 34.2132C39.4015 36.8851 35.7785 38.3872 32 38.3899Z" fill="#006DF0"/>
</svg>
