<?xml version="1.0" encoding="UTF-8" standalone="no"?> <svg id="Layer_1" data-name="Layer 1" xmlns="http://www.w3.org/2000/svg" viewBox="0 0 512 512"><defs><style>.cls-1{fill:#5ebc84;}.cls-2{fill:#fff;}.cls-3{opacity:0.1;}.cls-4{fill:#231f20;}</style></defs><title>location-pin-flat</title><path class="cls-1" d="M417.19,161.19c0,84.32-133.06,211.37-148.23,225.6l-13,12.14-13-12.14C227.87,372.56,94.81,245.51,94.81,161.19,94.81,72.31,167.13,0,256,0S417.19,72.31,417.19,161.19Z"/><path class="cls-2" d="M308.45,176.58a36.75,36.75,0,1,0-51.93-52l-.52.52-.52-.52a36.75,36.75,0,0,0-51.93,52l52.45,51Z"/><path class="cls-1" d="M397.53,372.14c-15-3-31.84-5.44-50-7.33-11.69,13.47-22.75,25.42-32.24,35.32,75.66,5,130.3,19.22,130.3,36,0,20.95-84.9,37.93-189.63,37.93s-189.63-17-189.63-37.93c0-16.8,54.64-31,130.3-36-9.49-9.9-20.55-21.85-32.24-35.32-18.12,1.89-35,4.34-50,7.33-23.53,4.71-86,17.21-86,64s62.5,59.3,86,64C152.66,507.79,202.93,512,256,512s103.34-4.21,141.53-11.84c23.53-4.71,86-17.21,86-64S421.05,376.85,397.53,372.14Z"/><g class="cls-3"><path class="cls-4" d="M417.19,161.19c0,84.32-133.06,211.37-148.23,225.6l-13,12.14V0C344.87,0,417.19,72.31,417.19,161.19Z"/></g></svg>